<svg width="198" height="40" viewBox="0 0 198 40" fill="none" xmlns="http://www.w3.org/2000/svg">
<rect width="198" height="40" rx="4" fill="#F2F2F5"/>
<path d="M110.333 26.9998C110.139 26.9998 110.039 26.7691 110.17 26.6269L116.389 19.9006L110.094 13.555C109.955 13.4149 110.054 13.1765 110.251 13.1765H113.882C113.943 13.1765 114.001 13.2017 114.043 13.2462L118.398 17.8646L122.538 13.2503C122.58 13.2033 122.64 13.1765 122.703 13.1765H125.784C125.979 13.1765 126.079 13.41 125.945 13.5515L120.273 19.5256L127.343 26.6209C127.483 26.761 127.383 26.9998 127.186 26.9998H123.45C123.388 26.9998 123.33 26.9746 123.288 26.9302L118.291 21.6419L113.696 26.9235C113.654 26.9719 113.592 26.9998 113.528 26.9998H110.333Z" fill="#172D3E"/>
<path d="M93.8848 26.9998C93.7622 26.9998 93.6627 26.9004 93.6627 26.7777V13.3986C93.6627 13.2759 93.7622 13.1765 93.8848 13.1765H107.141C107.264 13.1765 107.363 13.2759 107.363 13.3986V15.3119C107.363 15.4345 107.264 15.534 107.141 15.534H96.8774V18.6147H103.031C103.154 18.6147 103.253 18.7142 103.253 18.8368V20.7501C103.253 20.8728 103.154 20.9722 103.031 20.9722H96.8774V24.4012H107.275C107.398 24.4012 107.497 24.5007 107.497 24.6233V26.7777C107.497 26.9004 107.398 26.9998 107.275 26.9998H93.8848Z" fill="#172D3E"/>
<path d="M70.4113 26.9998C70.2887 26.9998 70.1892 26.9004 70.1892 26.7777V13.3986C70.1892 13.2759 70.2887 13.1765 70.4113 13.1765H73.1818C73.3045 13.1765 73.4039 13.2759 73.4039 13.3986V26.7777C73.4039 26.9004 73.3045 26.9998 73.1818 26.9998H70.4113Z" fill="#172D3E"/>
<path d="M54.6506 26.9998C54.5279 26.9998 54.4285 26.9004 54.4285 26.7777V13.3986C54.4285 13.2759 54.5279 13.1765 54.6506 13.1765H67.7462C67.8689 13.1765 67.9683 13.2759 67.9683 13.3986V15.3655C67.9683 15.4881 67.8689 15.5875 67.7462 15.5875H57.6432V19.2309H63.2344C63.357 19.2309 63.4565 19.3303 63.4565 19.453V21.527C63.4565 21.6497 63.357 21.7491 63.2344 21.7491H57.6432V26.7777C57.6432 26.9004 57.5438 26.9998 57.4211 26.9998H54.6506Z" fill="#172D3E"/>
<path d="M46.0538 15.6411V26.7777C46.0538 26.9004 45.9544 26.9998 45.8317 26.9998H43.0612C42.9385 26.9998 42.8391 26.9004 42.8391 26.7777V15.6411H36.9342C36.8115 15.6411 36.7121 15.5417 36.7121 15.419V13.3986C36.7121 13.2759 36.8115 13.1765 36.9342 13.1765H51.9854C52.1081 13.1765 52.2075 13.2759 52.2075 13.3986V15.419C52.2075 15.5417 52.1081 15.6411 51.9854 15.6411H46.0538Z" fill="#172D3E"/>
<path d="M31.4986 26.9998C31.3759 26.9998 31.2765 26.9004 31.2765 26.7777V13.3986C31.2765 13.2759 31.3759 13.1765 31.4986 13.1765H34.2691C34.3917 13.1765 34.4912 13.2759 34.4912 13.3986V26.7777C34.4912 26.9004 34.3917 26.9998 34.2691 26.9998H31.4986Z" fill="#172D3E"/>
<path fill-rule="evenodd" clip-rule="evenodd" d="M14 13.3986C14 13.2759 14.0994 13.1765 14.2221 13.1765H26.0604C27.655 13.1765 28.9476 14.4692 28.9476 16.0637V16.9865C28.9476 18.5811 27.655 19.8737 26.0604 19.8737H26.1683C27.7629 19.8737 29.0555 21.1664 29.0555 22.7609V24.1128C29.0555 25.7073 27.7629 27 26.1683 27H14.2221C14.0994 27 14 26.9006 14 26.7779V13.3986ZM17.1591 15.4273H24.6416C25.3775 15.4273 25.9742 16.0239 25.9742 16.7599V17.3894C25.9742 18.1254 25.3775 18.722 24.6416 18.722H17.1591V15.4273ZM17.1592 20.9979H24.7219C25.4578 20.9979 26.0545 21.5945 26.0545 22.3304V23.1757C26.0545 23.9117 25.4578 24.5083 24.7219 24.5083H17.1592V20.9979Z" fill="#172D3E"/>
<path d="M75.6249 26.7777V13.3986C75.6249 13.2759 75.7243 13.1765 75.847 13.1765H77.7374C77.7917 13.1765 77.844 13.1964 77.8846 13.2323L88.5485 22.6711L88.5485 13.3986C88.5485 13.2759 88.648 13.1765 88.7706 13.1765H91.2197C91.3423 13.1765 91.4418 13.2759 91.4418 13.3986V26.7777C91.4418 26.9003 91.3423 26.9998 91.2197 26.9998H89.3294C89.2751 26.9998 89.2226 26.9799 89.182 26.9438L78.5181 17.4804L78.5181 26.7777C78.5181 26.9003 78.4187 26.9998 78.296 26.9998H75.847C75.7243 26.9998 75.6249 26.9003 75.6249 26.7777Z" fill="#172D3E"/>
<path d="M129.822 21.4335C129.682 19.1682 130.633 16.6503 132.593 14.6907C136.854 10.4298 145.727 11.027 145.778 11.0304C145.753 11.0656 139.266 20.4709 131.579 21.3506C130.985 21.4186 130.398 21.4453 129.822 21.4335Z" fill="#03CA9B"/>
<path d="M130.722 24.3297C130.941 24.6796 131.201 25.0074 131.501 25.3075C134.131 27.9377 138.884 27.4489 142.118 24.2156C146.391 19.9425 145.778 11.0304 145.778 11.0304C145.754 11.0832 141.104 21.5067 133.714 23.7802C132.711 24.0889 131.705 24.2687 130.722 24.3297Z" fill="#03CA9B"/>
<path d="M153 27.0305H155.505V22.3573H158.153C161.347 22.3573 163.062 20.4394 163.062 17.7786C163.062 15.1382 161.367 13.2 158.186 13.2H153V27.0305ZM155.505 20.2976V15.2935H157.801C159.679 15.2935 160.51 16.3065 160.51 17.7786C160.51 19.2508 159.679 20.2976 157.815 20.2976H155.505Z" fill="#172D3E"/>
<path d="M167.359 27.2398C168.987 27.2398 169.959 26.4767 170.405 25.6055H170.486V27.0305H172.836V20.0882C172.836 17.3464 170.601 16.5226 168.622 16.5226C166.441 16.5226 164.766 17.495 164.226 19.3859L166.508 19.71C166.751 19.001 167.44 18.3932 168.635 18.3932C169.77 18.3932 170.391 18.974 170.391 19.9937V20.0342C170.391 20.7365 169.655 20.7703 167.825 20.9661C165.813 21.1822 163.888 21.7833 163.888 24.1199C163.888 26.1593 165.38 27.2398 167.359 27.2398ZM167.994 25.4435C166.974 25.4435 166.245 24.9775 166.245 24.0793C166.245 23.1406 167.062 22.749 168.156 22.5936C168.797 22.5059 170.081 22.3438 170.398 22.0872V23.3095C170.398 24.4643 169.466 25.4435 167.994 25.4435Z" fill="#172D3E"/>
<path d="M175.871 30.9C177.776 30.9 178.877 29.9141 179.464 28.2865L183.631 16.6711L181.017 16.6576L178.62 24.4913H178.512L176.121 16.6576H173.528L177.29 27.2466L177.08 27.8071C176.614 28.9551 175.912 29.0429 174.845 28.739L174.278 30.6366C174.609 30.7785 175.203 30.9 175.871 30.9Z" fill="#172D3E"/>
</svg>
